#!OML:ASF H:\BreakDance\Project 1\Capture day 1\Session 1\Male.ASF
:FULLY-SPECIFIED
:DEGREES
772
root 8.07093 11.876 5.413 21.5935 -96.1998 244.951
lowerback -3.43353 1.90743 6.04493
upperback 7.91066 2.28913 -3.85221
thorax 10.8826 1.76224 -7.31613
lowerneck -7.69236 4.23504 3.11499
upperneck 19.6861 5.45751 -0.895437
head 7.41725 2.67542 -0.346795
rclavicle -6.07287e-014 1.2383e-013
rhumerus -57.803 -7.85512 -65.2417
rradius 23.2376
rwrist 22.5301
rhand -38.5918 -37.144
rfingers 7.12502
rthumb -11.61 -66.8024
lclavicle -6.07287e-014 1.2383e-013
lhumerus -63.4754 -8.94363 60.7336
lradius 17.3084
lwrist -10.8849
lhand -36.0516 -21.1683
lfingers 7.12502
lthumb -9.15961 8.61279
rfemur -16.8183 -9.76395 1.20824
rtibia 107.169
rfoot 1.16417 8.85044
rtoes 2.94199
lfemur -33.2575 3.5778 -8.67012
ltibia 91.4351
lfoot -0.495352 -16.3484
ltoes -44.938
773
root 8.00148 11.5693 5.42569 25.3841 -95.2273 244.3
lowerback -3.42299 1.95033 5.31703
upperback 7.80387 2.41207 -3.94684
thorax 10.7323 1.75373 -6.98354
lowerneck -6.96495 4.21547 3.18507
upperneck 19.0205 5.41626 -0.85381
head 7.07113 2.67045 -0.372003
rclavicle -1.2921e-014 7.98617e-014
rhumerus -59.53 -9.06805 -66.8567
rradius 22.4607
rwrist 21.8237
rhand -37.5154 -37.9195
rfingers 7.12502
rthumb -10.5718 -67.6336
lclavicle -1.2921e-014 7.98617e-014
lhumerus -64.3769 -7.30276 57.4254
lradius 16.091
lwrist -12.0998
lhand -35.8102 -20.9341
lfingers 7.12502
lthumb -8.9267 8.85703
rfemur -15.4402 -9.41636 1.77194
rtibia 107.505
rfoot 2.11338 9.19907
rtoes 4.82382
lfemur -31.8421 2.91063 -7.47903
ltibia 93.3055
lfoot 1.85651 -16.8592
ltoes -43.9096
774
root 7.94111 11.2451 5.43973 30.7329 -94.3211 242.335
lowerback -3.39421 2.06139 4.64075
upperback 7.63384 2.62737 -4.09112
thorax 10.521 1.79606 -6.72342
lowerneck -6.19771 4.13883 3.22596
upperneck 18.179 5.29131 -0.737816
head 6.6601 2.63022 -0.377645
rclavicle -5.96354e-015 -6.04305e-014
rhumerus -61.2151 -10.1953 -68.6437
rradius 21.7276
rwrist 21.1158
rhand -36.6542 -38.7021
rfingers 7.12502
rthumb -9.74101 -68.4568
lclavicle -5.96354e-015 -6.04305e-014
lhumerus -65.0724 -5.93375 54.0252
lradius 15.0643
lwrist -13.0993
lhand -35.5497 -20.7751
lfingers 7.12502
lthumb -8.67525 9.02666
rfemur -14.523 -9.13104 2.42951
rtibia 107.973
rfoot 3.18772 9.64722
rtoes 7.25376
lfemur -30.8842 2.24413 -6.27261
ltibia 95.1457
lfoot 4.19728 -17.3553
ltoes -43.3405
775
root 7.89458 10.9078 5.45534 38.1284 -93.391 238.676
lowerback -3.43241 2.22452 4.12517
upperback 7.42426 2.8979 -4.2433
thorax 10.3249 1.88147 -6.55601
lowerneck -5.54447 4.00836 3.17918
upperneck 17.2073 5.09296 -0.538445
head 6.22569 2.55449 -0.345891
rclavicle -2.54444e-014 -1.15295e-014
rhumerus -62.7378 -11.1096 -70.7954
rradius 21.0763
rwrist 20.3656
rhand -35.8573 -39.6194
rfingers 7.12502
rthumb -8.9721 -69.4086
lclavicle -2.54444e-014 -1.15295e-014
lhumerus -65.474 -4.93814 51.005
lradius 14.2503
lwrist -13.4378
lhand -35.2642 -20.5409
lfingers 7.12502
lthumb -8.39978 9.27207
rfemur -14.1539 -9.00085 3.26683
rtibia 108.568
rfoot 4.41566 10.1738
rtoes 10.0533
lfemur -30.5602 1.59154 -4.9735
ltibia 96.9946
lfoot 6.72761 -17.884
ltoes -42.9561
776
root 7.8606 10.558 5.47133 51.1548 -92.4263 229.721
lowerback -3.43502 2.45562 3.82211
upperback 7.1816 3.24585 -4.44158
thorax 10.1006 2.02444 -6.55225
lowerneck -4.9776 3.79294 3.12642
upperneck 16.0683 4.77175 -0.253287
head 5.75416 2.4232 -0.293254
rclavicle 7.95139e-015 -6.75868e-014
rhumerus -64.0607 -11.8176 -73.587
rradius 20.5585
rwrist 19.3585
rhand -34.9135 -40.7465
rfingers 7.12502
rthumb -8.06126 -70.5728
lclavicle 7.95139e-015 -6.75868e-014
lhumerus -65.4574 -4.54569 48.7819
lradius 13.6557
lwrist -12.7354
lhand -34.9298 -20.0829
lfingers 7.12502
lthumb -8.07705 9.74275
rfemur -14.3133 -9.09568 4.23054
rtibia 109.334
rfoot 4.85153 10.7768
rtoes 9.48562
lfemur -30.9068 0.95997 -3.58021
ltibia 98.8796
lfoot 9.52211 -18.425
ltoes -42.6425
777
root 7.83868 10.2025 5.48694 80.9369 -91.3771 204.347
lowerback -3.37117 2.7296 3.93891
upperback 6.89186 3.61728 -4.61136
thorax 9.82017 2.21027 -6.75734
lowerneck -4.45684 3.48933 3.07333
upperneck 14.806 4.33206 0.0919347
head 5.25489 2.23335 -0.227454
rclavicle 7.79236e-014 -3.89618e-014
rhumerus -65.0889 -12.2028 -77.2124
rradius 20.2088
rwrist 17.8203
rhand -33.7089 -42.1244
rfingers 7.12502
rthumb -6.89854 -71.992
lclavicle 7.79236e-014 -3.89618e-014
lhumerus -64.9965 -4.59662 47.3205
lradius 13.2372
lwrist -11.2021
lhand -34.5706 -19.4205
lfingers 7.12502
lthumb -7.73036 10.4182
rfemur -15.2225 -9.55082 5.63759
rtibia 110.324
rfoot 3.3253 11.2941
rtoes 4.69533
lfemur -31.9443 0.40056 -1.79386
ltibia 100.844
lfoot 12.5969 -19.0891
ltoes -37.7054
778
root 7.8188 9.83544 5.50184 140.635 -91.5613 149.233
lowerback -3.07197 3.02539 3.96427
upperback 6.57524 4.03064 -4.88167
thorax 9.38347 2.4074 -7.02562
lowerneck -3.79229 3.09584 3.0765
upperneck 13.3217 3.78526 0.440733
head 4.66941 1.98632 -0.176707
rclavicle 6.20208e-014 -1.82882e-014
rhumerus -65.7901 -12.2032 -81.7362
rradius 20.1064
rwrist 15.5004
rhand -32.0722 -43.3271
rfingers 7.12502
rthumb -5.31843 -73.2403
lclavicle 6.20208e-014 -1.82882e-014
lhumerus -64.1329 -4.84637 46.3445
lradius 12.963
lwrist -9.25506
lhand -34.1711 -18.7085
lfingers 7.12502
lthumb -7.34469 11.144
rfemur -16.9467 -10.4051 6.76833
rtibia 111.713
rfoot -0.532367 11.3447
rtoes -3.49399
lfemur -33.4496 -0.0904901 -0.243523
ltibia 102.868
lfoot 14.0324 -19.8947
ltoes -29.1846
779
root 7.80184 9.4628 5.5167 163.363 -92.8752 131.227
lowerback -2.53998 3.22402 3.75595
upperback 6.28462 4.32361 -5.14374
thorax 8.80154 2.52335 -7.17917
lowerneck -4.53322 2.73396 3.07767
upperneck 13.47 3.23889 0.623575
head 4.82979 1.73026 -0.13771
rclavicle 3.02153e-014 -3.81667e-014
rhumerus -66.0665 -11.5077 -86.8776
rradius 20.2749
rwrist 12.3886
rhand -30.1049 -44.3965
rfingers 7.12502
rthumb -3.41876 -74.3489
lclavicle 3.02153e-014 -3.81667e-014
lhumerus -63.0245 -4.3907 45.1492
lradius 12.74
lwrist -7.92218
lhand -33.7926 -18.1565
lfingers 7.12502
lthumb -6.97938 11.7084
rfemur -19.7397 -11.7444 7.56976
rtibia 113.611
rfoot -6.19813 10.2894
rtoes -11.5865
lfemur -35.4771 -0.423203 1.00855
ltibia 105.075
lfoot 12.0545 -21.3423
ltoes -17.4025
780
root 7.78538 9.09185 5.53288 169.786 -94.3814 129.561
lowerback -1.77808 3.17981 3.18796
upperback 6.19238 4.29017 -5.15402
thorax 8.19395 2.44833 -6.89973
lowerneck -4.91591 2.51961 2.41712
upperneck 12.6592 2.99269 0.835034
head 4.62693 1.59196 0.0207257
rclavicle 3.81667e-014 0
rhumerus -65.8426 -9.64326 -91.9946
rradius 20.6838
rwrist 8.81145
rhand -28.1498 -45.2262
rfingers 7.12502
rthumb -1.53055 -75.2004
lclavicle 3.81667e-014 0
lhumerus -61.9355 -1.92507 43.068
lradius 12.4369
lwrist -8.27992
lhand -33.5054 -17.9574
lfingers 7.12502
lthumb -6.70213 11.9165
rfemur -23.7531 -13.4757 8.1574
rtibia 116.082
rfoot -12.394 8.27743
rtoes -17.194
lfemur -38.0734 -0.347387 1.94154
ltibia 107.437
lfoot 6.36855 -23.0849
ltoes -7.14783
781
root 7.77105 8.72944 5.55101 171.208 -95.902 132.879
lowerback -0.579048 3.13627 2.60209
upperback 6.16265 4.24565 -5.21521
thorax 7.40752 2.3681 -6.68747
lowerneck -5.63764 2.28622 1.79012
upperneck 12.0345 2.71137 1.06755
head 4.54131 1.44296 0.183677
rclavicle 2.54444e-014 3.49861e-014
rhumerus -65.6702 -7.90655 -96.3441
rradius 21.2735
rwrist 5.54404
rhand -26.5165 -45.7305
rfingers 7.12502
rthumb 0.0468722 -75.7102
lclavicle 2.54444e-014 3.49861e-014
lhumerus -60.7474 1.21328 40.7681
lradius 12.2478
lwrist -9.24759
lhand -33.3564 -18.0436
lfingers 7.12502
lthumb -6.55829 11.8349
rfemur -29.041 -15.6619 8.42576
rtibia 119.102
rfoot -17.7196 6.18294
rtoes -20.1806
lfemur -41.4651 0.255303 2.31219
ltibia 109.906
lfoot -2.23753 -24.4695
ltoes -3.25656
